<svg width="100" height="100" viewBox="0 0 100 100" fill="none" xmlns="http://www.w3.org/2000/svg">
<circle cx="50" cy="50" r="50" fill="#161513"/>
<path d="M32.6719 66.5625C22.9922 66.5625 16.8984 59.8125 16.8984 48.9375V48.9141C16.8984 38.25 22.9922 31.6172 32.6016 31.6172C40.5234 31.6172 45.4922 36.1875 46.8984 42.2812L46.9922 42.7031H41.6016L41.5312 42.4453C40.1016 38.5312 37.0312 36.2578 32.625 36.2578C26.1562 36.2578 22.2422 40.9688 22.2422 48.8906V48.9141C22.2422 57 26.2734 61.9219 32.7188 61.9219C38.2031 61.9219 42 58.4531 42.0703 53.3203V52.7578H33.1875V48.4688H47.25V51.9375C47.25 61.1016 41.8359 66.5625 32.6719 66.5625ZM51.8203 66V32.1797H59.1094L72.6328 51.7031H72.7969V32.1797H81.375V66H74.1562L60.5625 46.2656H60.3984V66H51.8203Z" fill="#F0F2F5"/>
</svg>
